<svg width="16" height="15" viewBox="0 0 16 15" fill="none" xmlns="http://www.w3.org/2000/svg">
<path d="M14.4409 6.35938C14.5085 6.78135 14.5503 7.22824 14.5503 7.66113C14.5502 9.66681 13.8352 11.3669 12.5962 12.543L10.5366 10.9434C11.2304 10.4615 11.6982 9.73463 11.8433 8.9082L11.8569 8.83008H8.19678V6.35938H14.4409Z" fill="#4280EF" stroke="#667085" stroke-width="0.133159"/>
<path d="M4.30518 8.91504C4.88109 10.4849 6.36627 11.6553 8.13037 11.6553C9.03357 11.6553 9.81072 11.4249 10.4204 11.0215L12.4966 12.6211C11.3975 13.6058 9.90708 14.1836 8.13037 14.1836C5.61475 14.1836 3.32947 12.777 2.18506 10.5479L4.30518 8.91504Z" fill="#34A353" stroke="#667085" stroke-width="0.133159"/>
<path d="M4.33592 8.79484C4.05647 7.95649 4.05647 7.04459 4.33592 6.20624L2.10031 4.4707C1.1443 6.38274 1.1443 8.63305 2.10031 10.5304L4.33592 8.79484Z" fill="#F6B704"/>
<path d="M8.13036 3.42515C9.08637 3.41044 10.0277 3.77814 10.719 4.44L12.6457 2.49855C11.4249 1.35133 9.80706 0.733596 8.13036 0.748304C5.57117 0.748304 3.24732 2.18968 2.1001 4.46941L4.33571 6.20495C4.8799 4.60179 6.3654 3.42515 8.13036 3.42515Z" fill="#E54335"/>
</svg>
