<svg width="72" height="73" viewBox="0 0 72 73" fill="none" xmlns="http://www.w3.org/2000/svg">
<path fill-rule="evenodd" clip-rule="evenodd" d="M36 72.5C16.2857 72.5 0 56.2143 0 36.5C0 16.7857 16.2581 0.5 35.9724 0.5C55.6866 0.5 72 16.7857 72 36.5C72 56.2143 55.7143 72.5 36 72.5ZM31.5775 54.5791C32.6006 54.5791 33.4854 54.109 34.1489 53.086L52.7296 23.9708C53.1443 23.3625 53.5038 22.6159 53.5038 21.9523C53.5038 20.4869 52.2042 19.5745 50.8494 19.5745C50.0476 19.5745 49.2457 20.0445 48.6374 20.9846L31.4393 48.3302L22.2872 36.8556C21.5683 35.9431 20.8218 35.6113 19.937 35.6113C18.5821 35.6113 17.4485 36.6897 17.4485 38.1551C17.4485 38.8464 17.725 39.5929 18.195 40.1735L28.8678 53.1136C29.725 54.1643 30.5545 54.5791 31.5775 54.5791Z" fill="url(#paint0_linear_11364_20688)"/>
<defs>
<linearGradient id="paint0_linear_11364_20688" x1="36" y1="119.86" x2="36" y2="1.05516" gradientUnits="userSpaceOnUse">
<stop stop-color="#47DAFF"/>
<stop offset="1" stop-color="#0067F7"/>
</linearGradient>
</defs>
</svg>
